<svg version="1" xmlns="http://www.w3.org/2000/svg" width="346.667" height="346.667" viewBox="0 0 260.000000 260.000000"><path d="M26 75.5V86h105l-4 6.1c-14.1 21.8-13.7 49.3 1.1 71.6l2.1 3.3H109c-24.3 0-22.9 1.2-12.5-10.5 11.8-13.3 15.5-20.2 16-30.3.5-11-3.4-19.5-11.1-24.3-7-4.3-11-4.7-43.8-4.9l-31.2-.1V143l.1 46h9.6c6.9 0 9.8-.4 10.1-1.3.2-.6.3-16.3.2-34.9v-33.6h19.3c18.3-.1 19.4.1 20.7 2 2.1 2.9 1.3 9.2-1.7 13.7-2.6 4-14 17.3-22.1 26-9.8 10.3-9.6 10-9.6 19.5v8.6h64.3c70.6 0 71-.1 83.4-6.2 11.5-5.6 22.8-17.9 28.1-30.5 15.1-35.7-4.7-77.2-40.9-85.8-5.4-1.2-18.1-1.5-84.1-1.5H26v10.5zm164.4 16.9c27.9 13.7 27.8 55.6-.2 69.3-5 2.4-6.9 2.8-14.7 2.8-7.7 0-9.8-.4-14.7-2.7-13.7-6.4-22.2-20.9-21.3-36.6.2-3.7.8-8.1 1.3-9.7 6.8-21.8 30.1-32.6 49.6-23.1z"/><path d="M148.9 116.5c0 .5-.1 5.7-.2 11.5l-.1 10.5 2.7.3c2.6.3 2.7.2 2.7-4.6s0-4.8 3.3-4.7c4.3.3 5.7-.4 5.7-2.6 0-1.6-.8-1.9-4.5-1.9-4.1 0-4.5-.2-4.5-2.5s.4-2.5 4.4-2.5c4.6 0 6-.8 5.1-3.2-.7-1.7-14.4-2-14.6-.3zM167.6 117.1c-3.4 2.7-3.5 5.9-.2 5.9 1.6 0 2.7-.7 3.1-2 .8-2.4 3.3-2.6 4.2-.4.7 2-.9 4.9-5.8 10.2-2.1 2.4-3.9 4.7-3.9 5 .1 2.2 2.1 2.9 8.5 2.7 6.4-.1 7-.3 7.3-2.3.3-2-.1-2.2-3.7-2.2-2.3 0-4.1-.3-4.1-.7 0-.4 1.4-2.1 3-3.8 4.1-4.2 5-9.5 2.1-12.4-2.7-2.7-7.1-2.7-10.5 0zM186.6 117.1c-3.2 2.5-4.4 7-3.5 12.8 1.7 11.8 16.3 12.3 18.4.7 2.2-11.6-6.9-19.8-14.9-13.5zm9.5 5.9c.1 1.1.2 3.1.2 4.5 0 4.7-.3 5.4-2.5 6.6-1.8 1-2.4.8-4-1.1-2.6-3.3-2.4-10.4.4-12.4 2.6-1.8 5.7-.5 5.9 2.4z"/></svg>